# xmcd
#
# Track frame offsets: 
#        150
#        10690
#        18739
#        28056
#        38767
#        48497
#        55153
#        64505
#        73371
#        83204
#        92034
#        99537
#        107973
#        121343
#        127595
#        138863
#        148722
#        157780
#        168658
#        175005
#
# Disc length: 2453 seconds
#
# Revision: 1
# Processed by: cddbd v1.5.2PL0 Copyright (c) Steve Scherf et al.
# Submitted via: ExactAudioCopy v1.1
#
DISCID=09099314
DTITLE=Buck Ryan with Don Reno and Red Smiley - Fiddling Buck Ryan with 
DTITLE=Don Reno and Red Smiley
DYEAR=2014
DGENRE=Country
TTITLE0=Goodbye Liza Jane
TTITLE1=Chicks Waltz
TTITLE2=Natural Bridge Blues
TTITLE3=I Saw Your Face in the Moon
TTITLE4=Kansas City Railroad Blues
TTITLE5=Kingdom Coming
TTITLE6=Stomping With Reno
TTITLE7=Whispering
TTITLE8=Fiddling Around
TTITLE9=Red's Virginia Waltz
TTITLE10=Love Somebody
TTITLE11=Lee Highway Blues
TTITLE12=Mary's Melody
TTITLE13=Ryan's Stomp
TTITLE14=South Sea Sweetheart
TTITLE15=Indian Creek
TTITLE16=In the Pines
TTITLE17=Ryan's Polka
TTITLE18=Black Berry Blossom
TTITLE19=Hog Through Reel
EXTD=
EXTT0=
EXTT1=
EXTT2=
EXTT3=
EXTT4=
EXTT5=
EXTT6=
EXTT7=
EXTT8=
EXTT9=
EXTT10=
EXTT11=
EXTT12=
EXTT13=
EXTT14=
EXTT15=
EXTT16=
EXTT17=
EXTT18=
EXTT19=
PLAYORDER=
